<svg width="635" height="200" viewBox="0 0 635 200" fill="none" xmlns="http://www.w3.org/2000/svg">
<rect width="200" height="200" rx="35" fill="#F4B526"/>
<path d="M165 107.639C165 148.382 136.562 168.753 102.763 180.569C100.993 181.17 99.07 181.142 97.3188 180.487C63.4375 168.753 35 148.382 35 107.639V50.5982C35 48.4371 35.856 46.3644 37.3798 44.8363C38.9035 43.3081 40.9701 42.4496 43.125 42.4496C59.375 42.4496 79.6875 32.6712 93.825 20.2853C95.5463 18.8104 97.736 18 100 18C102.264 18 104.454 18.8104 106.175 20.2853C120.394 32.7527 140.625 42.4496 156.875 42.4496C159.03 42.4496 161.097 43.3081 162.62 44.8363C164.144 46.3644 165 48.4371 165 50.5982V107.639Z" stroke="white" stroke-width="7" stroke-linecap="round" stroke-linejoin="round"/>
<path d="M57.5908 105V58.4545H75.409C78.7726 58.4545 81.5681 58.9848 83.7954 60.0454C86.0378 61.0909 87.712 62.5227 88.8181 64.3409C89.9393 66.1591 90.4999 68.2197 90.4999 70.5227C90.4999 72.4167 90.1363 74.0379 89.409 75.3863C88.6817 76.7197 87.7045 77.803 86.4772 78.6363C85.2499 79.4697 83.8787 80.0682 82.3635 80.4318V80.8863C84.0151 80.9773 85.5984 81.4848 87.1135 82.4091C88.6439 83.3182 89.8939 84.606 90.8635 86.2727C91.8332 87.9394 92.3181 89.9545 92.3181 92.3182C92.3181 94.7273 91.7348 96.8939 90.5681 98.8182C89.4014 100.727 87.6439 102.235 85.2954 103.341C82.9469 104.447 79.9923 105 76.4317 105H57.5908ZM66.0226 97.9545H75.0908C78.1514 97.9545 80.356 97.3712 81.7045 96.2045C83.0681 95.0227 83.7499 93.5076 83.7499 91.6591C83.7499 90.2803 83.409 89.0379 82.7272 87.9318C82.0454 86.8106 81.0757 85.9318 79.8181 85.2954C78.5605 84.6439 77.0605 84.3182 75.3181 84.3182H66.0226V97.9545ZM66.0226 78.25H74.3635C75.8181 78.25 77.1287 77.9848 78.2954 77.4545C79.462 76.9091 80.3787 76.1439 81.0454 75.1591C81.7272 74.1591 82.0681 72.9773 82.0681 71.6136C82.0681 69.8106 81.4317 68.3257 80.159 67.1591C78.9014 65.9924 77.0302 65.4091 74.5454 65.4091H66.0226V78.25Z" fill="white"/>
<path d="M63 139.091V134.901L75.3438 115.398H78.8381V121.364H76.7074L68.3977 134.531V134.759H85.6278V139.091H63ZM76.8778 144.489V137.812L76.9347 135.938V115.398H81.9062V144.489H76.8778Z" fill="white"/>
<path d="M100.919 145.043C98.58 145.043 96.5724 144.451 94.8963 143.267C93.2296 142.074 91.9465 140.355 91.0469 138.111C90.1567 135.857 89.7116 133.144 89.7116 129.972C89.7211 126.799 90.1709 124.1 91.0611 121.875C91.9607 119.64 93.2438 117.936 94.9105 116.761C96.5866 115.587 98.5895 115 100.919 115C103.249 115 105.251 115.587 106.928 116.761C108.604 117.936 109.887 119.64 110.777 121.875C111.677 124.11 112.126 126.809 112.126 129.972C112.126 133.153 111.677 135.871 110.777 138.125C109.887 140.369 108.604 142.083 106.928 143.267C105.261 144.451 103.258 145.043 100.919 145.043ZM100.919 140.597C102.737 140.597 104.172 139.702 105.223 137.912C106.284 136.113 106.814 133.466 106.814 129.972C106.814 127.661 106.572 125.72 106.089 124.148C105.607 122.576 104.925 121.392 104.044 120.597C103.163 119.792 102.122 119.389 100.919 119.389C99.1103 119.389 97.6804 120.289 96.6293 122.088C95.5781 123.878 95.0478 126.506 95.0384 129.972C95.0289 132.292 95.2609 134.242 95.7344 135.824C96.2173 137.405 96.8992 138.598 97.7798 139.403C98.6605 140.199 99.7069 140.597 100.919 140.597Z" fill="white"/>
<path d="M116.846 144.489V140.682L126.945 130.781C127.911 129.806 128.716 128.939 129.36 128.182C130.004 127.424 130.487 126.69 130.809 125.98C131.131 125.27 131.292 124.512 131.292 123.707C131.292 122.789 131.084 122.003 130.667 121.349C130.25 120.687 129.677 120.175 128.948 119.815C128.219 119.455 127.39 119.276 126.462 119.276C125.506 119.276 124.668 119.474 123.948 119.872C123.228 120.26 122.67 120.814 122.272 121.534C121.884 122.254 121.69 123.111 121.69 124.105H116.675C116.675 122.259 117.097 120.653 117.94 119.29C118.782 117.926 119.942 116.87 121.42 116.122C122.906 115.374 124.611 115 126.533 115C128.484 115 130.198 115.365 131.675 116.094C133.153 116.823 134.299 117.822 135.113 119.091C135.937 120.36 136.349 121.809 136.349 123.438C136.349 124.527 136.14 125.597 135.724 126.648C135.307 127.699 134.573 128.864 133.522 130.142C132.48 131.42 131.017 132.969 129.133 134.787L124.119 139.886V140.085H136.789V144.489H116.846Z" fill="white"/>
<path d="M242 159.462V40.1889H259.413V84.5085H260.462C261.471 82.6449 262.927 80.49 264.83 78.044C266.732 75.598 269.372 73.4626 272.75 71.6378C276.128 69.7741 280.593 68.8423 286.145 68.8423C293.366 68.8423 299.812 70.6671 305.48 74.3168C311.149 77.9664 315.594 83.2273 318.817 90.0994C322.078 96.9716 323.709 105.241 323.709 114.909C323.709 124.577 322.098 132.866 318.875 139.777C315.652 146.649 311.226 151.949 305.597 155.676C299.967 159.365 293.541 161.209 286.32 161.209C280.884 161.209 276.438 160.296 272.983 158.472C269.566 156.647 266.887 154.511 264.946 152.065C263.005 149.619 261.51 147.445 260.462 145.543H259.006V159.462H242ZM259.064 114.734C259.064 121.024 259.976 126.537 261.801 131.274C263.626 136.011 266.266 139.719 269.722 142.398C273.177 145.038 277.409 146.358 282.418 146.358C287.62 146.358 291.969 144.98 295.463 142.223C298.957 139.428 301.598 135.642 303.384 130.866C305.208 126.091 306.121 120.714 306.121 114.734C306.121 108.833 305.228 103.533 303.442 98.8352C301.695 94.1373 299.054 90.4294 295.521 87.7116C292.027 84.9938 287.659 83.6349 282.418 83.6349C277.37 83.6349 273.099 84.9356 269.605 87.5369C266.15 90.1382 263.529 93.7685 261.743 98.4276C259.957 103.087 259.064 108.522 259.064 114.734Z" fill="#F4B526"/>
<path d="M340.525 136.166V121.607L392.066 40.1889H403.539V61.6207H396.26L359.395 119.976V120.908H430.038V136.166H340.525ZM397.075 159.462V131.74L397.191 125.101V40.1889H414.255V159.462H397.075Z" fill="#F4B526"/>
<path d="M491.858 161.442C482.657 161.403 474.794 158.976 468.272 154.162C461.749 149.348 456.76 142.339 453.304 133.138C449.849 123.936 448.121 112.851 448.121 99.8835C448.121 86.9545 449.849 75.9086 453.304 66.7457C456.799 57.5828 461.807 50.5942 468.33 45.7798C474.891 40.9654 482.734 38.5582 491.858 38.5582C500.982 38.5582 508.806 40.9848 515.328 45.8381C521.851 50.6525 526.84 57.6411 530.296 66.804C533.79 75.928 535.537 86.9545 535.537 99.8835C535.537 112.89 533.81 123.994 530.354 133.196C526.899 142.359 521.909 149.367 515.387 154.22C508.864 159.035 501.021 161.442 491.858 161.442ZM491.858 145.892C499.934 145.892 506.243 141.951 510.786 134.07C515.367 126.188 517.658 114.793 517.658 99.8835C517.658 89.9829 516.61 81.616 514.513 74.7827C512.455 67.9105 509.485 62.7079 505.603 59.1747C501.759 55.6027 497.177 53.8167 491.858 53.8167C483.821 53.8167 477.512 57.777 472.931 65.6974C468.349 73.6179 466.039 85.0132 466 99.8835C466 109.823 467.029 118.229 469.087 125.101C471.184 131.934 474.154 137.117 477.998 140.651C481.841 144.145 486.462 145.892 491.858 145.892Z" fill="#F4B526"/>
<path d="M556.197 159.462V146.416L596.557 104.601C600.866 100.058 604.419 96.0786 607.214 92.6619C610.049 89.2064 612.165 85.9257 613.562 82.8196C614.96 79.7135 615.659 76.4133 615.659 72.919C615.659 68.9588 614.727 65.5421 612.864 62.669C611 59.7571 608.457 57.5246 605.234 55.9716C602.012 54.3797 598.382 53.5838 594.344 53.5838C590.073 53.5838 586.346 54.4574 583.162 56.2045C579.978 57.9517 577.532 60.4171 575.824 63.6008C574.116 66.7846 573.261 70.5118 573.261 74.7827H556.081C556.081 67.5222 557.75 61.1742 561.089 55.7386C564.428 50.303 569.01 46.0904 574.834 43.1008C580.658 40.0724 587.277 38.5582 594.693 38.5582C602.187 38.5582 608.787 40.053 614.494 43.0426C620.241 45.9934 624.725 50.0312 627.947 55.1562C631.17 60.2424 632.781 65.9886 632.781 72.3949C632.781 76.821 631.946 81.1501 630.277 85.3821C628.646 89.6141 625.793 94.3314 621.716 99.5341C617.639 104.698 611.971 110.968 604.71 118.345L581.007 143.155V144.028H634.703V159.462H556.197Z" fill="#F4B526"/>
</svg>
